<?xml version="1.0" encoding="utf-8"?>

<!DOCTYPE svg PUBLIC "-//W3C//DTD SVG 1.1//EN" "http://www.w3.org/Graphics/SVG/1.1/DTD/svg11.dtd">
<svg version="1.1" id="Layer_1" xmlns="http://www.w3.org/2000/svg" xmlns:xlink="http://www.w3.org/1999/xlink" x="0px" y="0px"
	 viewBox="0 0 1920 1364" enable-background="new 0 0 1920 1364" xml:space="preserve">
<g>
	<path d="M167.44,153.61c62.06,52.67,124.88,104.42,186.92,157.11c60.17,51.0901,119.69,102.97,177.61,156.6
		c16.84-30.59,36.32-59.72,58.3101-86.84C481.81,258.63,365.4,144.1799,248,31.02c-6.05-6.0901-12.65-11.89-20.61-15.3501
		c-9-4.1299-19.71-4.24-28.66,0.0701c-12.89,6.1899-21.95,18.05-28.72,30.3c-11.21,21.0699-17.23,45.04-16.69,68.9399
		C153.87,128.74,156.8,143.9299,167.44,153.61z"/>
	<path d="M1416.0601,293.05c1.22,2.3199,0.0599,4.83-0.9701,6.97c-19.26,41.5-30.5,86.36-36.1899,131.6499
		c1.0499,1.03,2.16,2.0601,2.95,3.3401c4.7001,7.4199,9.27,14.9199,13.5601,22.58c2.61-2.13,5.0299-4.47,7.5399-6.73
		c55.4701-50.6801,112.2201-99.9401,169.5701-148.48c58.83-49.8099,118.2999-98.87,177.0698-148.75
		c10.6702-9.67,13.5703-24.89,14.1401-38.66c0.52-22.9199-5.01-45.9099-15.3198-66.36c-6.2603-12.0299-14.5303-23.61-26.2601-30.83
		c-8.04-4.9301-18.11-6.72-27.22-3.98c-8.3601,2.26-15.53,7.47-21.8101,13.27C1637.49,61.45,1601.88,95.85,1566.65,130.64
		C1513.7,182.59,1461.6899,235.51,1410.45,289.1499C1412.66,289.79,1415.2,290.63,1416.0601,293.05z"/>
	<path d="M68.42,361.96c3.71,15.78,10.33,31.89,23.27,42.3301C146.95,446.47,203.71,486.66,261.15,525.81
		c67.18,45.72,135.33,90.01,203.9,133.61c8.83-50.78,23.8701-100.5,44.8701-147.58C390.04,409.52,267.2,310.6699,141.77,215.24
		c-6.21-5.02-13.57-9.4199-21.8-9.46c-9.22-0.3201-17.4901,5.11-23.58,11.59C85.96,228.8301,79.61,243.3,74.75,257.84
		c-5.63,17.99-9.23,36.75-9.82,55.59c-0.49,7.03-0.52,14.1201-0.01,21.15C64.9,343.78,66.59,352.95,68.42,361.96z"/>
	<path d="M1466.2,650.36c56.0701-35.73,111.8-72,166.9501-109.14c64.78-43.69,128.7802-88.58,190.9301-135.97
		c8-5.89,13.79-14.29,17.8899-23.25c6.3201-14.24,9.4099-29.88,10.03-45.38c0.6499-8.34,0.6001-16.76-0.01-25.11
		c-0.5-15.73-3.47-31.3601-7.53-46.55c-4.96-16.83-11.52-33.79-23.3398-47.0601C1814.98,211.1,1806.49,205.45,1797,205.78
		c-7.73,0-14.7,3.98-20.6099,8.61C1654.5699,307.0701,1535.17,402.9299,1418.58,502.1C1440.6,549.25,1456.7,599.2,1466.2,650.36z"/>
	<path d="M1293.17,358.3201c4.64-2.9601,9.2-6.03,13.9399-8.8301c-45.79-47.76-100.89-86.8401-161.75-112.98
		c-17.83-7.49-35.9299-14.53-54.6799-19.37c10.5399,3.65,21.0199,7.5099,31.33,11.7799
		C1188.71,256.87,1247.35,302.59,1293.17,358.3201z"/>
	<path d="M1405.67,1055.8199c-57.8401,15.76-113.9501,37.04-170.77,55.9901c-1.9,0.61-3.91,1.1399-5.4301,2.49
		c-47.01,38.96-102.22,68.3199-161.34,83.86c-42.63,11.37-87.14,15.21-131.13,12.1c-47.01-3.49-93.37-15.45-136.27-34.98
		c-2.3-1.0701-4.5701-2.24-7.03-2.8201c-16.95-3.5399-33.72-8.1899-49.83-14.5599c-1.58,1.22-3.2101,2.37-4.9301,3.4
		c2.6101,14.6799-1.96,30-10.78,41.8199c-1.8599,2.76-6,3.42-8.5499,1.24c-10.34-8.97-18.23-21.27-20.27-34.96
		c-6.32-2.47-9.66-8.8301-12.03-14.78c-3.84-9.97-6.29-20.48-7.47-31.09c-3.52-0.78-6.14-3.38-9.01-5.36
		c-36.41-26.9-66.44-62.12-88.08-101.83c-26.67-48.52-40.85-103.55-42.57-158.81c-19.95-72.26-25.69-148.47-16.42-222.88
		c-9.5,4.25-19.31,8.4-29.65,9.9c-4.91-0.51-4.72-6.13-6.06-9.65c-1.2599-2.94,0.6201-6.42,3.56-7.39c5.33-1.77,11-0.85,16.47-1.45
		c6.29-1.83,12.13-4.95,17.83-8.13c1.7401-11.4,3.83-22.74,6.26-34.02c0.87-2.55-0.29-5.22-1.54-7.42
		c-2.33-1.98-5.48-2.48-8.09-3.98c-7.97-4.29-13.84-13.6-11.95-22.81c1.04-5.96,5.91-10.65,11.5699-12.37
		c7.16-2.14,14.78-0.88,21.8701,0.9c20.75-68.24,55.1-132.52,101.5-186.78C692.95,295.9299,753.37,250.88,821.71,224.63
		c4.01-1.61,8.26-2.7001,11.95-5.03c-41.3499,12.59-80.75,31.41-117.0499,54.8199c-59.28,38.3101-110.02,89.27-149.75,147.49
		C519.14,491.73,487.12,571.93,471.89,655.02c-16.6,90.76-13.79,185.08,8.61,274.6c0.33,1.18,0.56,2.48,1.46,3.43
		c3.32,4.14,6.93,8.45,11.92,10.58c1.81-0.47,3.61-1.01,5.44-1.45c-2.61-5.55-4.91-11.27-6.35-17.24
		c-1.48-5.95-1.83-12.64,1.44-18.08c-1.19-1.78-1.97-3.78-2.28-5.88c-1.84-10.5-3.36-21.21-2.4-31.88c0.23-4.62,6.55-7.09,9.81-3.77
		c8.41,7.71,14.42,17.61,19.4999,27.72c0.83,1.44,0.95,3.1,1.02,4.74c8.43,3.41,13.16,12.52,14.31,21.15
		c8.63,41.31,25.06,81.04,48.5,116.15c2.31,6.3,1.65,13.38,1.03,19.9701c-0.72,3.5099-0.55,7.8899-3.6801,10.2799
		c-3.55,2.3401-7.5699-0.2-10.97-1.5499c-10.7-4.5801-19.91-12.3501-26.18-22.15c-2.61-0.52-5.36-0.62-7.65-2.11
		c-8.72-5.03-14.67-13.47-20.51-21.42c-4.42-5.9-7.15-12.98-12.27-18.36c15.34,40.5601,35.22,79.41,59.05,115.64
		c40.85,62,93.99,116.2,156.6,156.3199c69.04,44.38,149.9299,71.02,232.1299,73.36c10.6901,0.5701,21.4501,0.6001,32.1501,0
		c23.5898-0.5,47.1699-3.45,70.35-7.9399c78.39-15.15,152.01-51.89,213.0499-103.11
		C1324.3,1185.23,1371.66,1123.75,1405.67,1055.8199z"/>
	<path d="M933.9,624.81c-72.09,56.3-136.92,121.73-193.5699,193.51c-2.1401,2.41-3.78,5.7-2.7201,8.97
		c0.66,2.9901,3.65,6.82,7.04,5.3c3.5299-2.3701,6.38-5.6201,9.7-8.27c64.7101-56.83,134.5-107.69,207.05-154.02
		c68.4-43.77,138.59-84.66,209.1699-124.81c67.1101-38.14,134.7301-75.39,202.1801-112.9299c5.78-47.2301,17.5699-94,37.89-137.1501
		c-33.62,17.8501-66.23,37.51-98.4301,57.8c-63.8199,40.47-125.95,83.54-187.3099,127.63C1060.25,527.5,996.35,575.23,933.9,624.81z
		"/>
	<path d="M711.97,451.0601c-18.71,6.0898-37.3,12.6599-55.3199,20.58c-6.9,3.2599-14,6.34-20.11,10.98
		c-2.23,1.75-5.14,4.28-3.62,7.45c6.95-0.69,14.07-0.32,20.85-2.29c5.59-1.31,10.6-4.2,15.6-6.93c-1.81-0.46-4.17-0.83-4.7-2.98
		c-1.02-2.6,1.49-4.8,3.13-6.47c-0.93,3.26,0.38,6.39,2.63,8.75c1.14-0.81,3.47-1.33,2.83-3.21c-0.18-2.79-2.44-4.58-4.54-6.04
		c2.3701-0.21,5.25-0.71,7.04,1.34c2.09,2.41,0.17,5.88-2.17,7.28c-8.47,4.88-17.19,10.4-27.2401,10.94
		c-4.0699,0.63-8.29-0.03-12.28,0.71c-15.12,9.93-30.2,19.95-45.69,29.29c-14.38,8.66-28.88,17.25-44.2,24.16
		c-6.47-1.89-13.52-3.62-20.16-1.57c-3.37,0.89-6.33,3.46-7.33,6.85c-1.18,2.88-0.28,5.99,0.67,8.79c2.65,5.77,8.25,9.49,14.3,10.96
		l0.06,0.31c1.48,0.9,3.09,1.74,4.09,3.21c1.48,2.31,1.55,5.41,3.66,7.34c1.46,1.44,3.44,2.12,5.34,2.8
		c15.72-19.11,33.57-37.04,55.35-49.18c15.76-8.98,33.41-14.59,51.46-16.32c-9.68,13.51-22.92,23.78-35.66,34.22
		c-7.97,6.48-16.63,12.03-24.97,18.0099c-5.8,4.2401-11.68,8.87-15.11,15.35c12.14-4.47,25.16-7.06,38.12-5.38
		c8.95,1.26,16.09-5.39,21.72-11.41c8.7-9.2599,11.47-22.42,20.15-31.69c6.75-7.4,15.74-12.2599,24.85-16.17
		c9.72-4,19.78-7.17,29.98-9.68c1.25,4-0.53,8.08-1.7999,11.84c-5.58,14.36-13.02,27.91-20.88,41.12
		c-9.62,16.36-21.04,31.55-31.9,47.09c-22.7,32.36-44.89,65.16-64.22,99.67c-18.39,33.22-34.88,68.11-42.44,105.55
		c-3.18,16.03-4.05,32.47-2.88,48.76c3.02,63.44,23.54,126.21,59.98,178.3499c19.98,28.5801,44.81,53.8201,73.35,73.9
		c-3.02-10.23-7.87-19.86-10.3-30.2799c-1.2-5.1201-1.41-11.1101,2.44-15.2001c-0.35-8.21,0.71-16.4399,2.4-24.46
		c1.19-3.64,7.05-3.86,8.31-0.1801c1.32,5.41,3.82,10.4601,7.35,14.78c2.87-0.54,5.71,0.23,8.01,2.01
		c-0.57-7.38-0.73-14.88,0.6-22.1801c0.95-5.7999,3.36-11.7799,8.55-15.0199c-0.48-1.54-1.2-3.0701-0.6899-4.6801
		c1.7999-10.16,4.6299-20.18,8.8799-29.59c0.77-1.5099,1.39-3.38,3.1101-4.05c2.0699-1.14,4.9299-0.11,5.8499,2.07
		c4.01,8.29,5.8401,17.45,6.8401,26.56c0.27,3.64,1.8201,7.86-1.14,10.83c4.27,2.88,6.12,8.02,6.7101,12.9401
		c0.9199,8.15,0.3499,16.42-0.6901,24.54c1.8199-1.3201,3.8199-2.3601,5.9501-3.0901c1.74-3.61,4.3699-6.6899,6.0798-10.3099
		c1.9202-3.55,3.0801-7.4401,4.8501-11.05c2.1899-2.89,7.38-1.7,7.85,1.9501c0.77,10.87,0.16,21.96-2.5699,32.5499
		c1.3699,2.62,1.5599,5.67,0.58,8.47c-3.9301,12.29-13.2001,22.87-13.85,36.14c1.4399,10.5901,3.76,21.64,0.4099,32.12
		c26.1401,9.99,53.6201,16.38,81.42,19.4601c27.91,3.3099,56.09,2.4399,84.11,1.39c50.14-2.3301,100.0901-8.67,149.27-18.75
		c42.84-8.6901,85.09-20.14,126.8-33.1801c42.99-13.38,85.39-28.54,127.97-43.14c43.35-14.72,86.99-29.11,131.99-37.9299
		c18.26-3.67,36.8101-5.79,55.33-7.39c12.4301-0.4601,24.89-0.52,37.3301,0c17.21,1.59,34.51,3.6699,51.2799,8.13
		c39.9701,9.8899,76.9501,29.47,110.0901,53.59c-19.49-22.01-41.01-42.38-65.02-59.42c-28.5-20.31-60.8201-35.53-95.04-43.15
		c-25.52-5.92-51.87-7.6-78-6.69c-46.71,1.78-92.5699,11.74-138.02,22.01c-48.73,11.12-97.4299,22.91-147.0699,29.26
		c-17.91,2.5399-36.03,3.64-54.02,4.97c-14.83,0.34-29.67,0.41-44.5-0.08c-22.1899-1.55-44.48-3.64-66.34-8.0601
		c-40.3101-7.6899-79.42-21.18-116.3601-38.98C863.8,978.42,832.64,959.21,803.13,937.81c-15.9401-11.39-30.49-24.76-43.03-39.82
		c-28.83-34.34-46.33-77.12-54.17-121.02c-2.71-13.68-3.7999-27.64-5.2899-41.46c-0.11-5.03-0.29-10.06-0.61-15.08
		c0.3199-5.1-0.09-10.23,0.0699-15.34c-0.03-20.33,1.79-40.61,4.37-60.75c2.52-16.3701,4.3601-33.05,10.3-48.63
		c15.23-41.55,34.3899-81.5,51.6-122.2401c4.9-11.99,10.52-23.83,13.5599-36.46c21.74-4.52,44.98-6.63,66.3701,0.6499
		C860.23,442.47,872.85,450.29,885.3201,457.99c-7.5-2.91-15.2101-6.3101-23.42-6c-1.7101-0.13-3.03,0.98-4.3,1.9299
		c1.34,4.6801,5.77,7.3,9.4901,9.9601c10.6199,6.69,22.3398,11.89,34.6599,14.44c3.04,0.46,6.55,1.52,9.3201-0.42
		c1.5599-1.45-0.1501-3.7-0.8101-5.23c-4.88-7.67-12.36-13.19-19.65-18.42c-23.8099-16.1799-52.3199-26.76-81.4-25.5901
		c17.6901-3.3499,35.74-5.5599,53.78-4.5898c17.02,0.7699,33.76,5.3599,49.03,12.8298c12.85,6.27,25.13,13.6602,37.25,21.2101
		c-10.39-4.25-21.1799-8.97-32.67-8.2899c-2.24,0.0499-5.74,1.3599-4.7799,4.24c1.7899,4.25,5.7999,6.9899,9.3398,9.7199
		c12.6501,8.75,26.8901,15.07,41.5601,19.59c6.1899,1.51,12.67,3.6,19.0801,2.33c4.3899-1.17,1.84-6.15,0.23-8.71
		c-7.47-11.09-18.5901-19.03-29.45-26.51c-26.6401-17.27-57.1301-29.51-88.9601-32.0601c-6.2101-0.6299-12.4401,0.1501-18.64-0.2799
		c23.13-3.88,46.52-7.4501,70.05-6.42c19.34,0.6899,38.6,4.54,56.5601,11.77c22.46,9.03,43.0898,21.9099,63.6699,34.49
		c-11.17-4.46-22.4299-9.6899-34.54-10.74c-3.84-0.72-7.79-0.87-11.61-0.0701c-2.15,0.1101-4.65,1.4301-4.75,3.8401
		c0.24,3.2,2.6,5.6799,4.7101,7.8899c6.22,6.0201,13.6299,10.6501,21.1199,14.9101c11.73,6.54,24.0601,12.01,36.78,16.3
		c9.11,2.9,18.48,5.59,28.11,5.75c2.77-0.23,7.11-0.59,7.5-4.08c-0.58-5.69-4.26-10.39-7.76-14.67
		c-8.22-9.5-18.09-17.43-28.2699-24.72c-18.77-13.2201-39.1901-24.0699-60.5701-32.38c-30.76-12.03-64.1499-18.6101-97.22-15.21
		c-42.02,4.33-82.64,16.8899-122.41,30.6399C748.02,439.89,729.9,445.2,711.97,451.0601z"/>
	<path d="M634.52,476.69c8.17-5.79,17.54-9.56,26.7-13.47c-16.2-19.29-32.24-38.73-49-57.54
		C593.46,434.75,577.34,465.54,564.58,497.71c6.59,6.06,13.09,12.22,19.54,18.4301c14.23-8.8101,28.44-17.66,42.22-27.17
		C626.24,483.58,630.5,479.63,634.52,476.69z"/>
	<path d="M1463.4301,668.63c-13.2301-81.88-42.52-161.36-87.2301-231.3099c-7.5199,4.48-15.3199,8.49-22.87,12.9199
		c3.4701,6.5701,6.63,13.3,9.79,20.03c2.8-1.7,6.67-3.7,9.6-1.06c2.4301,1.55,2.11,4.56,2.37,7.05c-0.47,5.06-0.73,10.15-0.71,15.24
		c-0.8,2.12-0.4,4.48,0.5,6.51c33.35,84.32,44.85,176.81,35.48,266.88c-8.6799,83.11-35.89,164.5-80.73,235.12
		c35.51-8.07,71.27-15.67,107.5699-19.1C1471.66,881.12,1480.13,772.76,1463.4301,668.63z"/>
	<path d="M1348.1899,453.03c-34.5099,19.1899-69.08,38.2999-103.5399,57.58c-15.72,8.96-31.75,17.45-47.25,26.75
		c-9.0601,11.45-17.3301,23.52-26.0801,35.21c61.8301-33.76,123.89-67.13,186.4801-99.48
		C1354.83,466.29,1351.36,459.73,1348.1899,453.03z"/>
	<path d="M263.65,812.45c66.96,32.02,134.91,62.12,204.41,88.21c-7.21-32.93-10.35-66.65-12.45-100.21
		c-0.49-19.37-0.5-38.75,0.11-58.12c0.83-8.83,1.08-17.77,2.06-26.6c-60.56-34.92-120.63-70.71-180.22-107.27
		c-70-43.12-139.45-87.18-207.07-133.96c-9.14-7.56-23.39-7.85-33.14-1.26c-8.11,5.42-13.38,14.04-17.27,22.79
		c-6.4,14.82-9.14,30.91-10.78,46.88c-2.11,24.34-0.88,48.9301,3.18,73.01c3.44,19.34,8.58,38.57,17.42,56.19
		c6.27,12.28,14.57,24.23,26.69,31.32C124.26,742.27,193.36,778.6,263.65,812.45z"/>
	<path d="M1906.8599,534.95c-2.4697-17.78-6.4297-36.06-16.6499-51.15c-5.1899-7.52-12.9299-13.95-22.29-14.98
		c-6.9897-0.7401-14.6499,0.38-20.2598,4.89c-53.9902,37.48-109.2803,73.08-164.9702,107.97
		C1614,624.68,1544.4,666.21,1474.42,707.07c1.4299,12.98,2.0199,26.1,2.98,39.08c0.49,18.43,0.48,36.87-0.14,55.29
		c-1.78,31.04-5.04,62.07-10.83,92.66c60.35-23.56,119.72-49.58,178.1899-77.46c73.3199-35,145.33-72.75,215.8102-113.18
		c12.3999-7.22,20.7598-19.53,27.0898-32.08c11.0698-22.59,16.47-47.5,19.4399-72.34C1909.23,577.76,1909.5,556.2,1906.8599,534.95z
		"/>
	<path d="M752.15,843.97c0.2,4.3,4.3099,8.6201,8.7699,7.97c3.3701-1.15,6.53-2.82,9.8201-4.15
		c126.52-54.99,253.72-108.4,379.85-164.3c73.39-32.62,146.52-65.88,218.38-101.77c-1.36-35.8799-2.14-71.86,0.16-107.71
		c-29.54,15.0099-58.79,30.63-88.09,46.12c-69.3401,36.88-138.25,74.58-206.5801,113.29c-71.6,40.75-142.72,82.44-211.83,127.31
		c-36.26,23.88-72.38,48.26-105.48,76.44C755.05,839.05,752.28,840.86,752.15,843.97z"/>
	<path d="M662.09,592.31c16.37-22.9,31.61-46.96,41.92-73.26c-6.11,1.66-12.11,3.68-17.99,5.99c-11.57,4.64-23.44,10.88-30.19,21.83
		c-4.95,8.17-8.28,17.37-14.66,24.64C648.19,578.39,655.24,585.26,662.09,592.31z"/>
	<path d="M533.81,621.83c12.07-8.03,22.38-18.42,31.26-29.82c12.75-15.94,22.84-34.04,37.54-48.38
		c10.44-10.22,23.9-17.35,38.36-19.71c2.17-0.1,3.82-1.45,4.96-3.21c-13.99,1.91-27.5,7.63-38.41,16.65
		c-23.85,19.73-36.13,49.5-58.62,70.52c-10.89,10.49-23.98,18.7-38.22,23.8c-5.16,1.46-10.58,0.12-15.83,0.98
		c2.78,0.77,5.74,0.6,8.5099,1.4901c-2.6899,1.44-5.46,2.72-8.05,4.3199C508.93,635.1,522.12,629.63,533.81,621.83z"/>
	<path d="M628.34,533.6c-5.67,2.56-11.06,5.72-16.01,9.4901c0.54,0.58,1.62,1.74,2.16,2.33
		C619.13,541.51,624.13,537.98,628.34,533.6z"/>
	<path d="M1371.36,587.24c-35.73,17.93-71.96,34.87-108.09,51.97c-14.03,12.42-27.62,25.38-41.3101,38.19
		c49.23-20.4901,98.16-41.72,146.8101-63.55c3.48-1.7599,8.0599,1.19,8.16,5.04c1.4399,22.58,2.88,45.16,4.1599,67.75l0.2101-0.02
		c0.13,4.08,0.2699,8.16,0.7,12.23c-0.3199,1.57-0.15,3.17-0.14,4.78c8.58-5.1,16.88-10.64,25.4-15.83
		c-1.4301-52.15-10.04-104.15-25.92-153.86c-1.8099,1.65-3.65,3.25-5.51,4.84c-0.9199,0.8799-2.4199,1.68-2.0499,3.22
		c0.08,13.02,0.76,26.02,1.14,39.02C1375.3101,583.67,1373.77,586.2,1371.36,587.24z"/>
	<path d="M833.53,705.18c-30.78-49.91-63.28-98.77-97.72-146.22c-4.2101,9.56-8.05,19.28-11.8501,29.0099
		c-3.55,9.5-7.1799,19.05-9.01,29.07c-1.58,8.29-2.8599,16.64-4.1299,24.98c30.3699,31.96,60.0599,64.57,88.73,98.07
		C810.6599,728.24,821.98,716.6,833.53,705.18z"/>
	<path d="M570.32,564.21c-7.72,7.37-14.6,15.55-21.62,23.57c-3.23,3.17-7.73,0.6-11-1.1c-1.96,8.93-3.59,17.93-5.02,26.96
		c17.09-12.11,29.29-29.45,41.16-46.39C572.66,566.23,571.48,565.22,570.32,564.21z"/>
	<path d="M638.86,625.34c-14.52-13.06-28.96-26.2-43.62-39.1c-5.62,1.06-11.13,2.65-16.53,4.5c-1.7,0.7-3.53,0.46-5.28,0.27
		c-12.02,16.26-26.62,30.93-44.38,40.85c1.1,2.62,0.23,5.41-0.02,8.1c-2.0601,19.16-3.34,38.39-3.6,57.66
		c16.68,10.44,33.34,20.92,50.04,31.34C593.81,692.8,616.04,658.8,638.86,625.34z"/>
	<path d="M768.73,857.83c-1.1899,2.26,0.5701,4.7,2.0601,6.34c5,5.01,12.23,7.13,19.1599,7.4c22.0601-0.49,44.1101-1.94,66.02-4.56
		c49.51-5.63,98.49-15.23,147.01-26.43c40.29-9.37,80.27-20.03,120.01-31.53c85.79-24.89,170.42-53.68,254.0701-84.98
		c-1.5601-34.93-3.9501-69.8-6.0601-104.69c-117.41,52.65-236.48,101.55-356.37,148.26c-80.14,31.4-160.0699,63.84-242.73,88.14
		C770.76,856.25,769.1599,856.49,768.73,857.83z"/>
	<path d="M1146.23,707.25c7.42-8.57,15.2001-16.81,22.6801-25.32c-32.35,14.39-64.85,28.48-97.2001,42.84
		c-4.25,6.46-8.08,13.23-11.99,19.91c27.64-11.41,55.35-22.65,82.9501-34.16C1144.17,709.83,1145.11,708.4,1146.23,707.25z"/>
	<path d="M722.6899,818.24c0.6901,4.27,5.6301,5.09,8.49,7.53c0.3-3.59,1.1801-7.26,3.6101-10.04
		c14.73-18.74,30.02-37.04,45.8799-54.83c-24.25-24.72-49.1399-48.81-74.1099-72.8C704.44,731.94,708.5601,776.52,722.6899,818.24z"
		/>
	<path d="M1342.36,937.56c5.64-1.66,11.3201-3.33,16.8201-5.38c7.11-14.81,12.87-30.28,18.3199-45.78
		c15.6-45.22,24.91-92.5,28.6-140.16c-7.5,4.07-14.88,8.34-22.33,12.49c-0.05,40.39-2.3,81.32-13.88,120.25
		c-0.8101,2.5-1.3101,5.69-4.0601,6.82c-45.5499,19.25-93.8199,31.64-142.6799,38.9c-24.4301,3.84-49.15,5.74-73.74,7.68
		c-4.67,0.05-9.3401,0.24-13.99,0.62c-27.78,0.7-55.63,1.02-83.42-0.14c-3.98,0.35-7.4399,2.8-11.26,3.88
		c5.5601,1.35,11.48,1.03,17.1901,1.71c56.12,3.93,112.73,3.91,168.5399-3.79c41.88-5.74,83.1-16.04,122.85-30.39
		c4.4601-2.24,10.0601,3.05,7.8501,7.58C1353.0699,920.86,1347.91,929.37,1342.36,937.56z"/>
	<path d="M859.1,747.63c-10.87,8.08-21.64,16.3-32.38,24.56c0.92,1.15,1.8601,2.31,2.8,3.48c10.96-7.53,22.1-14.77,33.1799-22.11
		C861.48,751.58,860.29,749.6,859.1,747.63z"/>
	<path d="M556.36,771.69c-9.48-5.5-19.17-10.63-28.66-16.13c2.57,26.75,6.41,53.5,13.17,79.53
		C542.61,813.3,548.71,792.09,556.36,771.69z"/>
	<path d="M814.9099,899.72c79.01,13.94,158.8,24.4301,239.04,27.25c54.13,1.83,108.51,0.28,162.1901-7.28
		c45.37-6.37,90.23-17.1,133.03-33.59c4.62-2.0699,9.76-3.3,14.0199-6.0099c12.26-38.73,14.41-79.78,14.66-120.14
		c-88.7899,34.94-180.7899,61.12-273.75,82.33c-45.39,10.29-90.91,20.4399-137.16,26.0699c-54.45,7.02-109.3499,9.51-164.1299,12.45
		c-3.7101,0.29-7.54-0.12-11.0901,1.16c-0.4299,2.85,1.51,5.14,3.3601,7.04C800.5701,894.19,807.21,898.84,814.9099,899.72z"/>
	<path d="M1056.6899,846.63c52.3601-11.15,104.4901-23.49,156.03-37.98c6.53-3.12,12.39-7.52,18.66-11.15
		c18.24-11.48,36.8-22.52,54.86-34.27c-70.5699,24.37-141.85,46.79-213.95,66.21C1066.6899,834.73,1062.05,841.06,1056.6899,846.63z
		"/>
	<path d="M775.1599,814.66C786.39,806.51,797.22,797.79,808.74,790.03c-0.47-0.51-1.4299-1.51-1.8999-2.01
		C796.3301,796.95,785.12,805.11,775.1599,814.66z"/>
	<path d="M285.69,1144.4c47.99,16.0599,98.73,23.2999,149.27,22.99c48.31-0.1801,96.35-7.22,143.39-17.87
		c-33.77-45.13-61.42-94.89-81.3099-147.64c-1.27-2.42-0.25-5.11,1.34-7.06c-7.34-8.78-17.75-16.45-19.87-28.35
		c-57.49-16.02-114.16-35.03-169.48-57.43C235.5,879.23,164.5,843.1,97.51,800.56c-7.32-4.69-16.5-8.18-25.15-5.23
		c-9.2,3.37-14.52,12.49-17.77,21.23c-4.32,12.09-6.33,25.02-6.62,37.81c-0.46,7.41-0.44,14.86,0,22.27
		c0.14,13.52,2.1899,26.99,4.37,40.33c6.18,33.15,16.52,66.13,35.04,94.57c7.28,11.43,16.83,21.16,27.03,30.0001
		C164.01,1086.5699,221.88,1123.29,285.69,1144.4z"/>
	<path d="M1867.7,837.9c-1.9099-11.57-4.53-23.48-11.3699-33.2401c-3.9302-5.6299-10.1499-10.22-17.2202-10.37
		c-7.0598-0.44-13.6899,2.65-19.5498,6.25c-41.6401,26.43-84.8201,50.44-129.2101,71.92c-77.4199,37.55-158.46,67.38-241.16,90.99
		c-1.6599,5.61-3.5,11.18-5.4199,16.72c19.66-1.57,39.4399-1.92,59.11-0.4c41.45,3.18,82.12,16.07,117.6,37.78
		c32.3201,19.52,60.5601,45.21,85.49,73.43c4.11,4.4-1.71,12.09-7,9.2001c-6.4399-4.2201-12.5499-8.9401-19.0699-13.04
		c-43.04-28.4-93.5-46.71-145.29-48.1901c-9.37-0.5599-18.7999-0.5499-28.17,0.01c-32.0299,1-63.6299,7.5601-94.6699,15.2101
		c-0.17,1.5499-0.0801,3.22-0.87,4.64c-16.63,32.9099-36.15,64.3899-58.7001,93.59c37.41,8.08,75.49,13.28,113.75,14.6799
		c48.13,1.6801,96.65-3.09,143.14-15.9199c40.48-11.05,79.2201-28.23,114.92-50.23c30.6599-18.8201,59.0798-41.13,85.4299-65.5801
		c11.3999-10.26,20.4502-22.9,27.7402-36.33c9.5-17.36,16.2998-36.07,21.5-55.13c5.5498-21.31,9.5898-43.2,10.2698-65.22
		c0.6101-8.77,0.6101-17.6,0.01-26.38C1869.04,847.48,1868.29,842.67,1867.7,837.9z"/>
	<path d="M894.12,808.66c-1.16-2.0099-2.2899-4.04-3.38-6.0699c-9.79,4.04-19.4399,8.39-29.22,12.45
		c1.1599,1.28,1.8899,3.16,3.47,3.9901C874.73,815.66,884.4099,812.14,894.12,808.66z"/>
	<path d="M840.46,824.19c-10.71,4.57-21.3199,9.42-32.1899,13.55c1.27-0.19,2.5701-0.32,3.83-0.67
		c10.17-3.34,20.2401-7.03,30.4801-10.18C841.86,825.98,841.15,825.08,840.46,824.19z"/>
	<path d="M996.4,858.12c9.84-1.62,19.6901-3.22,29.45-5.23c4.09-4.53,7.49-9.71,11.41-14.41c-11.6901,2.92-23.4299,5.65-35.15,8.49
		C1000.1899,850.68,998.01,854.26,996.4,858.12z"/>
	<path d="M903.3401,868.73c6.3198-0.5,12.6499-1.13,18.99-1.57c-0.0701-0.92-0.2201-2.7599-0.29-3.68
		c-6.89,0.89-13.6801,2.45-20.5701,3.3C901.9299,867.27,902.87,868.25,903.3401,868.73z"/>
	<path d="M508.57,905.6c3.96-1.19,4.34-6,5.47-9.34c-4.97-9.52-10.34-19.16-18.46-26.38c-0.69,10.87,0.7,21.76,3.01,32.38
		C501.74,903.73,504.92,905.97,508.57,905.6z"/>
	<path d="M782.73,913.32c12.03,11.52,25.6799,21.12,39.3501,30.55C839.64,955.9,857.79,967.1,876.52,977.2
		c7.58-4.88,12.74-12.75,15.3101-21.29c-11.51-5.96-22.99-12-34.04-18.79c-9.3-5.77-18.91-11.39-26.49-19.41
		c-26.1801-12.06-52.21-24.51-77.74-37.91C762.27,891.8,771.86,903.2,782.73,913.32z"/>
	<path d="M497.12,949.11c-3.42,0.91-2.6,5.16-4.72,7.33c-1.85,3.18-5.92,4.36-7.5,7.66c-0.88,4.11,1.76,7.84,4,11.04
		c8.33,10.91,19.52,19.62,26.04,31.9c5.8,9.46,12.25,18.86,21,25.83c2.34,1.8101,6.83,4.28,8.8,0.78
		c4.72-7.48,11.88-13.52,20.41-16.11c-18.17-31.88-30.71-66.88-37.8-102.85c-1.93-4.87-5.06-10.47-10.67-11.51
		c-1.28,2.54-2.89,5.25-5.68,6.32c-3.35,1.38-6.98,0.15-10.16-1.09c-1.95,2.04-3.04,4.7401-3.03,7.58
		c-0.13,7.52,2.96,14.58,5.84,21.38c3.79,8.94,9.12,17.18,12.6,26.25c-2.93-2.73-5.29-5.98-8.05-8.86
		C505.33,951.8,501.71,947.74,497.12,949.11z"/>
	<path d="M1342.91,912.85c-24.48,8.41-49.4501,15.44-74.8101,20.64c-46.0399,9.73-93.16,13.47-140.16,13.55
		c-99.24-0.25-197.5999-16.11-294.73-35.17c2.8401,3.5,6.5701,6.12,10.2,8.74c12.4701,8.84,25.7301,16.53,39.1901,23.75
		c35.4501,18.75,72.9,33.67,111.4801,44.61c48.98,13.88,99.95,21.15,150.8999,20.19c46.7001-0.91,93.36-8.72,137.5601-23.89
		c29.6899-17.64,53.9399-44.13,69.0399-75.19C1348.5601,910.58,1345.8,911.94,1342.91,912.85z"/>
	<path d="M478.31,938.17c1.54,6.76,3.26,13.5,5.87,19.94c3.11-2.22,6.13-5.18,6.26-9.26C485.74,946.06,481.81,942.31,478.31,938.17z
		"/>
	<path d="M727.24,1023.96c-0.47-10.67-2.28-21.4901-6.77-31.26c-4.9099,9.73-7.6899,20.4-9.58,31.09
		c2.6,2.72,4.9501,6.58,9.11,6.8801C723.36,1029.85,725.54,1026.75,727.24,1023.96z"/>
	<path d="M1207.05,1009.81c-52.8601,8.2-107.02,6.82-159.63-2.5c0.75,9.42,5.21,18.1299,10.12,26.02
		c9.23,1.0701,18.59,1.76,27.88,1.74c11.0299,0.52,22.1,0.4801,33.13,0.03c23.96-0.2999,47.86-3.13,71.58-6.46
		c44.99-6.51,89.1899-17.34,133.52-27.25c-0.0801-2.5,0.7999-4.79,2.4-6.68c-31.0801,5.88-62.51,10.13-94.13,11.56
		C1223.49,1006.34,1215.38,1008.91,1207.05,1009.81z"/>
	<path d="M576.9,1060.38c1.48-7.27,2.19-14.84,0.81-22.17c-3.43-5.6-7.07-11.09-10.47-16.72c-8.39,2.41-15.13,8.51-19.67,15.83
		C553.91,1048.4399,564.87,1056.39,576.9,1060.38z"/>
	<path d="M753.79,1084.85c0.9099-2.4299,2.34-6.2899-0.77-7.74c-4.6001-1.95-8.8-5.37-10.05-10.41
		c-1.83,0.78-3.6799,1.6801-4.9099,3.3c-4.8601,5.88-6.8601,13.39-9.78,20.29c1.3999-15.8,5.6299-31.4301,4.45-47.39
		c-0.37-4.28-1.5601-9.0701-5.46-11.4601c-2.0901,1.7201-4.3601,3.65-7.22,3.7101c-3.79,0.12-6.8201-2.48-9.4401-4.89
		c-4.37,1.9-6.48,6.59-7.28,11.03c-2.86,15.14,0.57,30.46,0.75,45.6699c-3.13-5.8199-3.73-12.84-7.93-18.11
		c-1.59-2.1799-4.67-2.99-7.09-1.73c-1.84,2.14-3.64,4.53-6.46,5.4401c-2.85,1.48-7.12,1.0599-8.56,4.48
		c-1.29,3.4199-0.5,7.2,0.3,10.6499c3.33,11.9401,9.27,23.0701,11.47,35.3401c0.76,5.73,1.58,11.47,3.14,17.0499
		c1.92,7.1001,3.91,14.4801,8.31,20.51c1.36,1.9301,4.3,4.3401,6.53,2.2001c8.0501-5.8,18.43-8.73,28.2701-6.65
		c3.7999,1.03,7.5-1.85,8.8699-5.25c2.5-5.9501,1.8701-12.61,1.23-18.86c-0.4199-5.3301-2.3499-10.62-1.3298-15.99
		C742.77,1104.77,749.61,1095.29,753.79,1084.85z"/>
	<path d="M756.51,1044.2c-2.65,6.3401-5.28,12.8-9.54,18.28c0.0601,4.71,2.99,8.67,7.3401,10.4301
		C756.5601,1063.54,757.0701,1053.79,756.51,1044.2z"/>
	<path d="M685.7,1063.6801c-3.43-4.1001-5.06-9.1901-7.32-13.88c-1.08,6.6499-1.96,13.36-1.94,20.13
		C680.19,1069.03,683.98,1067.39,685.7,1063.6801z"/>
	<path d="M603.22,1180c-25.33,8.74-51.12,16.15-77.2599,22.03c-47.75,10.78-97.03,15.9199-145.93,12.1599
		c-45.6-3.33-90.42-14.98-132.43-32.87c-33.45-14.0599-65.2-31.8199-95.98-50.96c-9.36-5.77-18.52-12.16-28.95-15.88
		c-3.94-1.33-8.31-2.54-12.39-1.1699c-3.7,1.5599-4.69,6.12-4.21,9.75c1.28,9.5699,5.64,18.36,10.11,26.7999
		c10.09,18.23,22.63,35,36.06,50.9c22.18,26.17,47.78,49.25,74.7,70.4399c32.65,25.3401,68.37,47.0801,107.05,61.89
		c41.84,16.12,87.21,23.64,131.9901,19.99c43.04-3.1799,84.9999-16.21,123.4399-35.5699c33.79-16.86,64.94-38.62,93.81-62.87
		C654.13,1232.52,627.42,1207.37,603.22,1180z"/>
	<path d="M1805.9199,1113.05c-4.6199-1.03-9.2598,0.5699-13.5298,2.1599c-9.8501,3.92-18.6101,9.99-27.5703,15.53
		c-51.3499,32.05-106.2399,59.88-165.4899,73.76c-48.39,11.65-98.8199,13.48-148.1699,7.83
		c-42.5701-4.9399-84.4301-14.99-125.13-28.26c-25.47,28.4501-53.8301,54.3401-84.76,76.76
		c32.76,26.61,68.52,49.86,107.4199,66.4701c42.8201,18.47,89.63,28.4099,136.3501,26.4399c40.97-1.61,81.34-12.1899,118.5399-29.27
		c33.9601-15.52,65.4301-36.12,94.4401-59.5499c27.4299-22.28,53.3198-46.7001,75.28-74.4801
		c11.6499-14.7899,22.5999-30.2699,30.97-47.1799c3.1602-6.7,6.1299-13.7,6.77-21.15
		C1811.4302,1118.47,1809.8198,1113.98,1805.9199,1113.05z"/>
	<path d="M1131.1899,1143.62c0.0901,1.04,0.9601,1.75,1.54,2.62c4.16,5.29,8.04,10.8201,12.4,15.96c0.5699-0.2,1.72-0.6,2.3-0.7999
		c16.95-8.76,33.37-18.5601,49.0099-29.48c-3.1699-1.4701-6.34-2.9301-9.45-4.49C1168.48,1133.12,1149.9,1138.62,1131.1899,1143.62z
		"/>
	<path d="M704.95,1167.37c1.8,12.66,8.9,23.92,18.3,32.37c8.27-11,12.28-25.29,9.5701-38.92
		C723.0801,1158.3,712.79,1161.39,704.95,1167.37z"/>
</g>
</svg>
